<svg width="30" height="30" viewBox="0 0 30 30" fill="none" xmlns="http://www.w3.org/2000/svg">
<path fill-rule="evenodd" clip-rule="evenodd" d="M1.44455 3.8094C0 5.97131 0 8.98088 0 15C0 21.0191 0 24.0287 1.44455 26.1906C2.0699 27.1265 2.87348 27.9301 3.8094 28.5555C5.97131 30 8.98088 30 15 30C21.0191 30 24.0287 30 26.1906 28.5555C27.1265 27.9301 27.9301 27.1265 28.5555 26.1906C30 24.0287 30 21.0191 30 15C30 8.98088 30 5.97131 28.5555 3.8094C27.9301 2.87348 27.1265 2.0699 26.1906 1.44455C24.0287 0 21.0191 0 15 0C8.98088 0 5.97131 0 3.8094 1.44455C2.87348 2.0699 2.0699 2.87348 1.44455 3.8094ZM14.625 4.35888H15.3743L18.6116 10.3278L22.2592 7.21066L22.789 7.74052L19.6682 11.3844L25.6408 14.6253V15.3747L19.6682 12.8787L22.789 22.2595L22.2592 22.7893L18.6116 13.9353L15.3743 25.6411H14.625L17.1173 13.9353L7.7402 22.7893L7.21034 22.2595L16.0607 12.8787L4.35855 15.3747V14.6253L16.0607 11.3844L7.21034 7.74052L7.7402 7.21066L17.1173 10.3278L14.625 4.35888Z" fill="white"/>
</svg>
